<mxfile host="Electron" modified="2023-10-26T22:33:23.743Z" agent="Mozilla/5.0 (Windows NT 10.0; Win64; x64) AppleWebKit/537.36 (KHTML, like Gecko) draw.io/22.0.3 Chrome/114.0.5735.289 Electron/25.8.4 Safari/537.36" etag="CRQcdinqjbOglpsyNU1i" version="22.0.3" type="device">
  <diagram name="Page-1" id="dDXWab2Z--Yb7wk2q9bK">
    <mxGraphModel dx="1996" dy="1524" grid="1" gridSize="10" guides="1" tooltips="1" connect="1" arrows="1" fold="1" page="1" pageScale="1" pageWidth="850" pageHeight="1100" math="0" shadow="0">
      <root>
        <mxCell id="0" />
        <mxCell id="1" parent="0" />
        <mxCell id="NZHu4BYsuNpsSUzNb1ZC-3" value="Персональный&amp;nbsp;&lt;br&gt;компьютер&lt;br&gt;пользователя" style="verticalAlign=top;align=left;spacingTop=8;spacingLeft=2;spacingRight=12;shape=cube;size=10;direction=south;fontStyle=4;html=1;whiteSpace=wrap;" vertex="1" parent="1">
          <mxGeometry x="1080" y="505" width="180" height="120" as="geometry" />
        </mxCell>
        <mxCell id="NZHu4BYsuNpsSUzNb1ZC-10" value="file: listBooks.cpp" style="html=1;dropTarget=0;whiteSpace=wrap;" vertex="1" parent="1">
          <mxGeometry x="50" y="400" width="180" height="90" as="geometry" />
        </mxCell>
        <mxCell id="NZHu4BYsuNpsSUzNb1ZC-11" value="" style="shape=module;jettyWidth=8;jettyHeight=4;" vertex="1" parent="NZHu4BYsuNpsSUzNb1ZC-10">
          <mxGeometry x="1" width="20" height="20" relative="1" as="geometry">
            <mxPoint x="-27" y="7" as="offset" />
          </mxGeometry>
        </mxCell>
        <mxCell id="NZHu4BYsuNpsSUzNb1ZC-12" value="file:listBooks.cpp" style="html=1;dropTarget=0;whiteSpace=wrap;" vertex="1" parent="1">
          <mxGeometry x="50" y="640" width="180" height="90" as="geometry" />
        </mxCell>
        <mxCell id="NZHu4BYsuNpsSUzNb1ZC-13" value="" style="shape=module;jettyWidth=8;jettyHeight=4;" vertex="1" parent="NZHu4BYsuNpsSUzNb1ZC-12">
          <mxGeometry x="1" width="20" height="20" relative="1" as="geometry">
            <mxPoint x="-27" y="7" as="offset" />
          </mxGeometry>
        </mxCell>
        <mxCell id="NZHu4BYsuNpsSUzNb1ZC-14" value="file: listBookMarks.cpp" style="html=1;dropTarget=0;whiteSpace=wrap;" vertex="1" parent="1">
          <mxGeometry x="50" y="880" width="180" height="90" as="geometry" />
        </mxCell>
        <mxCell id="NZHu4BYsuNpsSUzNb1ZC-15" value="" style="shape=module;jettyWidth=8;jettyHeight=4;" vertex="1" parent="NZHu4BYsuNpsSUzNb1ZC-14">
          <mxGeometry x="1" width="20" height="20" relative="1" as="geometry">
            <mxPoint x="-27" y="7" as="offset" />
          </mxGeometry>
        </mxCell>
        <mxCell id="NZHu4BYsuNpsSUzNb1ZC-16" value="Рисует окна&lt;br&gt;для взаимодействия&lt;br&gt;пользователя&lt;br&gt;с приложением" style="rounded=0;whiteSpace=wrap;html=1;" vertex="1" parent="1">
          <mxGeometry x="1110" y="15" width="120" height="60" as="geometry" />
        </mxCell>
        <mxCell id="NZHu4BYsuNpsSUzNb1ZC-17" value="" style="endArrow=none;dashed=1;html=1;rounded=0;entryX=0.5;entryY=1;entryDx=0;entryDy=0;exitX=0.5;exitY=0;exitDx=0;exitDy=0;" edge="1" parent="1" source="NZHu4BYsuNpsSUzNb1ZC-18" target="NZHu4BYsuNpsSUzNb1ZC-16">
          <mxGeometry width="50" height="50" relative="1" as="geometry">
            <mxPoint x="1330" y="355" as="sourcePoint" />
            <mxPoint x="1380" y="305" as="targetPoint" />
          </mxGeometry>
        </mxCell>
        <mxCell id="NZHu4BYsuNpsSUzNb1ZC-18" value="file: mainwindow.cpp" style="html=1;dropTarget=0;whiteSpace=wrap;" vertex="1" parent="1">
          <mxGeometry x="1080" y="270" width="180" height="90" as="geometry" />
        </mxCell>
        <mxCell id="NZHu4BYsuNpsSUzNb1ZC-19" value="" style="shape=module;jettyWidth=8;jettyHeight=4;" vertex="1" parent="NZHu4BYsuNpsSUzNb1ZC-18">
          <mxGeometry x="1" width="20" height="20" relative="1" as="geometry">
            <mxPoint x="-27" y="7" as="offset" />
          </mxGeometry>
        </mxCell>
        <mxCell id="NZHu4BYsuNpsSUzNb1ZC-34" value="file: mainwindow.cpp" style="html=1;dropTarget=0;whiteSpace=wrap;" vertex="1" parent="1">
          <mxGeometry x="50" y="160" width="180" height="90" as="geometry" />
        </mxCell>
        <mxCell id="NZHu4BYsuNpsSUzNb1ZC-35" value="" style="shape=module;jettyWidth=8;jettyHeight=4;" vertex="1" parent="NZHu4BYsuNpsSUzNb1ZC-34">
          <mxGeometry x="1" width="20" height="20" relative="1" as="geometry">
            <mxPoint x="-27" y="7" as="offset" />
          </mxGeometry>
        </mxCell>
        <mxCell id="NZHu4BYsuNpsSUzNb1ZC-36" value="Открытие&lt;br&gt;книги" style="rounded=0;whiteSpace=wrap;html=1;" vertex="1" parent="1">
          <mxGeometry x="840" y="220" width="120" height="60" as="geometry" />
        </mxCell>
        <mxCell id="NZHu4BYsuNpsSUzNb1ZC-44" value="Получение&lt;br&gt;запрашиваемого&lt;br&gt;списка&lt;br&gt;книг" style="rounded=0;whiteSpace=wrap;html=1;" vertex="1" parent="1">
          <mxGeometry x="510" y="360" width="120" height="60" as="geometry" />
        </mxCell>
        <mxCell id="NZHu4BYsuNpsSUzNb1ZC-45" value="Формирует&lt;br&gt;результат&lt;br&gt;в зависимости от&lt;br&gt;запроса" style="rounded=0;whiteSpace=wrap;html=1;" vertex="1" parent="1">
          <mxGeometry x="510" y="15" width="120" height="60" as="geometry" />
        </mxCell>
        <mxCell id="NZHu4BYsuNpsSUzNb1ZC-46" value="" style="endArrow=none;dashed=1;html=1;rounded=0;entryX=0.5;entryY=1;entryDx=0;entryDy=0;exitX=0.5;exitY=0;exitDx=0;exitDy=0;" edge="1" parent="1" source="NZHu4BYsuNpsSUzNb1ZC-44" target="NZHu4BYsuNpsSUzNb1ZC-45">
          <mxGeometry width="50" height="50" relative="1" as="geometry">
            <mxPoint x="530" y="190" as="sourcePoint" />
            <mxPoint x="580" y="140" as="targetPoint" />
          </mxGeometry>
        </mxCell>
        <mxCell id="NZHu4BYsuNpsSUzNb1ZC-47" value="" style="endArrow=open;endSize=12;dashed=1;html=1;rounded=0;exitX=1;exitY=0.5;exitDx=0;exitDy=0;entryX=0;entryY=0.75;entryDx=0;entryDy=0;" edge="1" parent="1" source="NZHu4BYsuNpsSUzNb1ZC-14" target="NZHu4BYsuNpsSUzNb1ZC-44">
          <mxGeometry width="160" relative="1" as="geometry">
            <mxPoint x="330" y="550" as="sourcePoint" />
            <mxPoint x="490" y="550" as="targetPoint" />
            <Array as="points">
              <mxPoint x="480" y="925" />
              <mxPoint x="480" y="810" />
              <mxPoint x="480" y="405" />
            </Array>
          </mxGeometry>
        </mxCell>
        <mxCell id="NZHu4BYsuNpsSUzNb1ZC-48" value="" style="endArrow=open;endSize=12;dashed=1;html=1;rounded=0;exitX=1;exitY=0.5;exitDx=0;exitDy=0;entryX=0;entryY=0.5;entryDx=0;entryDy=0;" edge="1" parent="1" source="NZHu4BYsuNpsSUzNb1ZC-12" target="NZHu4BYsuNpsSUzNb1ZC-44">
          <mxGeometry width="160" relative="1" as="geometry">
            <mxPoint x="320" y="430" as="sourcePoint" />
            <mxPoint x="480" y="430" as="targetPoint" />
            <Array as="points">
              <mxPoint x="440" y="685" />
              <mxPoint x="440" y="445" />
              <mxPoint x="440" y="390" />
            </Array>
          </mxGeometry>
        </mxCell>
        <mxCell id="NZHu4BYsuNpsSUzNb1ZC-49" value="" style="endArrow=open;endSize=12;dashed=1;html=1;rounded=0;entryX=0;entryY=0.25;entryDx=0;entryDy=0;exitX=1;exitY=0.5;exitDx=0;exitDy=0;" edge="1" parent="1" source="NZHu4BYsuNpsSUzNb1ZC-10" target="NZHu4BYsuNpsSUzNb1ZC-44">
          <mxGeometry width="160" relative="1" as="geometry">
            <mxPoint x="230" y="320" as="sourcePoint" />
            <mxPoint x="390" y="320" as="targetPoint" />
            <Array as="points">
              <mxPoint x="400" y="445" />
              <mxPoint x="400" y="375" />
            </Array>
          </mxGeometry>
        </mxCell>
        <mxCell id="NZHu4BYsuNpsSUzNb1ZC-50" value="" style="endArrow=open;endSize=12;dashed=1;html=1;rounded=0;entryX=0;entryY=0.5;entryDx=0;entryDy=0;" edge="1" parent="1" target="NZHu4BYsuNpsSUzNb1ZC-36">
          <mxGeometry width="160" relative="1" as="geometry">
            <mxPoint x="230" y="200" as="sourcePoint" />
            <mxPoint x="390" y="200" as="targetPoint" />
            <Array as="points">
              <mxPoint x="560" y="200" />
              <mxPoint x="560" y="250" />
            </Array>
          </mxGeometry>
        </mxCell>
        <mxCell id="NZHu4BYsuNpsSUzNb1ZC-51" value="" style="endArrow=open;endSize=12;dashed=1;html=1;rounded=0;entryX=0;entryY=0.75;entryDx=0;entryDy=0;exitX=1;exitY=0.5;exitDx=0;exitDy=0;" edge="1" parent="1" source="NZHu4BYsuNpsSUzNb1ZC-44" target="NZHu4BYsuNpsSUzNb1ZC-36">
          <mxGeometry width="160" relative="1" as="geometry">
            <mxPoint x="680" y="390" as="sourcePoint" />
            <mxPoint x="840" y="390" as="targetPoint" />
            <Array as="points">
              <mxPoint x="680" y="390" />
              <mxPoint x="680" y="265" />
              <mxPoint x="720" y="265" />
            </Array>
          </mxGeometry>
        </mxCell>
        <mxCell id="NZHu4BYsuNpsSUzNb1ZC-52" value="" style="shape=providedRequiredInterface;html=1;verticalLabelPosition=bottom;sketch=0;" vertex="1" parent="1">
          <mxGeometry x="1010" y="240" width="20" height="20" as="geometry" />
        </mxCell>
        <mxCell id="NZHu4BYsuNpsSUzNb1ZC-53" value="" style="endArrow=none;html=1;rounded=0;entryX=0;entryY=0.5;entryDx=0;entryDy=0;entryPerimeter=0;exitX=1;exitY=0.5;exitDx=0;exitDy=0;" edge="1" parent="1" source="NZHu4BYsuNpsSUzNb1ZC-36" target="NZHu4BYsuNpsSUzNb1ZC-52">
          <mxGeometry width="50" height="50" relative="1" as="geometry">
            <mxPoint x="940" y="390" as="sourcePoint" />
            <mxPoint x="990" y="340" as="targetPoint" />
          </mxGeometry>
        </mxCell>
        <mxCell id="NZHu4BYsuNpsSUzNb1ZC-54" value="" style="endArrow=none;html=1;rounded=0;exitX=1;exitY=0.5;exitDx=0;exitDy=0;exitPerimeter=0;entryX=0;entryY=0.25;entryDx=0;entryDy=0;" edge="1" parent="1" source="NZHu4BYsuNpsSUzNb1ZC-52" target="NZHu4BYsuNpsSUzNb1ZC-18">
          <mxGeometry width="50" height="50" relative="1" as="geometry">
            <mxPoint x="1070" y="310" as="sourcePoint" />
            <mxPoint x="1120" y="260" as="targetPoint" />
          </mxGeometry>
        </mxCell>
        <mxCell id="NZHu4BYsuNpsSUzNb1ZC-55" value="Получает оформление&amp;nbsp;&lt;br&gt;и содержимое&lt;br&gt;книги" style="rounded=0;whiteSpace=wrap;html=1;" vertex="1" parent="1">
          <mxGeometry x="840" y="15" width="120" height="60" as="geometry" />
        </mxCell>
        <mxCell id="NZHu4BYsuNpsSUzNb1ZC-57" value="" style="endArrow=none;dashed=1;html=1;rounded=0;entryX=0.5;entryY=1;entryDx=0;entryDy=0;exitX=0.5;exitY=0;exitDx=0;exitDy=0;" edge="1" parent="1" source="NZHu4BYsuNpsSUzNb1ZC-36" target="NZHu4BYsuNpsSUzNb1ZC-55">
          <mxGeometry width="50" height="50" relative="1" as="geometry">
            <mxPoint x="890" y="200" as="sourcePoint" />
            <mxPoint x="940" y="150" as="targetPoint" />
          </mxGeometry>
        </mxCell>
        <mxCell id="NZHu4BYsuNpsSUzNb1ZC-58" value="" style="shape=providedRequiredInterface;html=1;verticalLabelPosition=bottom;sketch=0;" vertex="1" parent="1">
          <mxGeometry x="810" y="490" width="20" height="20" as="geometry" />
        </mxCell>
        <mxCell id="NZHu4BYsuNpsSUzNb1ZC-59" value="" style="shape=providedRequiredInterface;html=1;verticalLabelPosition=bottom;sketch=0;" vertex="1" parent="1">
          <mxGeometry x="820" y="585" width="20" height="20" as="geometry" />
        </mxCell>
        <mxCell id="NZHu4BYsuNpsSUzNb1ZC-60" value="«interface»&lt;br&gt;&lt;b&gt;Выбор книги&lt;/b&gt;" style="html=1;whiteSpace=wrap;" vertex="1" parent="1">
          <mxGeometry x="85" y="280" width="110" height="90" as="geometry" />
        </mxCell>
        <mxCell id="NZHu4BYsuNpsSUzNb1ZC-61" value="" style="endArrow=none;dashed=1;html=1;rounded=0;exitX=0.5;exitY=0;exitDx=0;exitDy=0;entryX=0.5;entryY=1;entryDx=0;entryDy=0;" edge="1" parent="1" source="NZHu4BYsuNpsSUzNb1ZC-60" target="NZHu4BYsuNpsSUzNb1ZC-34">
          <mxGeometry width="50" height="50" relative="1" as="geometry">
            <mxPoint x="310" y="290" as="sourcePoint" />
            <mxPoint x="360" y="240" as="targetPoint" />
          </mxGeometry>
        </mxCell>
        <mxCell id="NZHu4BYsuNpsSUzNb1ZC-62" value="«interface»&lt;br&gt;GUI&lt;br&gt;приложения" style="html=1;whiteSpace=wrap;" vertex="1" parent="1">
          <mxGeometry x="1115" y="400" width="110" height="50" as="geometry" />
        </mxCell>
        <mxCell id="NZHu4BYsuNpsSUzNb1ZC-63" value="«interface»&lt;br&gt;&lt;b&gt;Недавно&lt;br&gt;&lt;/b&gt;открытые&lt;br&gt;книги" style="html=1;whiteSpace=wrap;" vertex="1" parent="1">
          <mxGeometry x="85" y="520" width="110" height="90" as="geometry" />
        </mxCell>
        <mxCell id="NZHu4BYsuNpsSUzNb1ZC-64" value="" style="endArrow=none;dashed=1;html=1;rounded=0;exitX=0.5;exitY=0;exitDx=0;exitDy=0;entryX=0.5;entryY=1;entryDx=0;entryDy=0;" edge="1" parent="1" source="NZHu4BYsuNpsSUzNb1ZC-63" target="NZHu4BYsuNpsSUzNb1ZC-10">
          <mxGeometry width="50" height="50" relative="1" as="geometry">
            <mxPoint x="250" y="550" as="sourcePoint" />
            <mxPoint x="300" y="500" as="targetPoint" />
          </mxGeometry>
        </mxCell>
        <mxCell id="NZHu4BYsuNpsSUzNb1ZC-65" value="«interface»&lt;br&gt;&lt;b&gt;Понравившиеся&lt;br&gt;&lt;/b&gt;книги" style="html=1;whiteSpace=wrap;" vertex="1" parent="1">
          <mxGeometry x="85" y="760" width="110" height="90" as="geometry" />
        </mxCell>
        <mxCell id="NZHu4BYsuNpsSUzNb1ZC-66" value="" style="endArrow=none;dashed=1;html=1;rounded=0;exitX=0.5;exitY=0;exitDx=0;exitDy=0;entryX=0.5;entryY=1;entryDx=0;entryDy=0;" edge="1" parent="1" source="NZHu4BYsuNpsSUzNb1ZC-65" target="NZHu4BYsuNpsSUzNb1ZC-12">
          <mxGeometry width="50" height="50" relative="1" as="geometry">
            <mxPoint x="160" y="620" as="sourcePoint" />
            <mxPoint x="210" y="570" as="targetPoint" />
          </mxGeometry>
        </mxCell>
        <mxCell id="NZHu4BYsuNpsSUzNb1ZC-67" value="«interface»&lt;br&gt;&lt;b&gt;Закладки&lt;/b&gt;" style="html=1;whiteSpace=wrap;" vertex="1" parent="1">
          <mxGeometry x="85" y="1000" width="110" height="90" as="geometry" />
        </mxCell>
        <mxCell id="NZHu4BYsuNpsSUzNb1ZC-68" value="" style="endArrow=none;dashed=1;html=1;rounded=0;exitX=0.5;exitY=0;exitDx=0;exitDy=0;entryX=0.5;entryY=1;entryDx=0;entryDy=0;" edge="1" parent="1" source="NZHu4BYsuNpsSUzNb1ZC-67" target="NZHu4BYsuNpsSUzNb1ZC-14">
          <mxGeometry width="50" height="50" relative="1" as="geometry">
            <mxPoint x="320" y="1000" as="sourcePoint" />
            <mxPoint x="370" y="950" as="targetPoint" />
          </mxGeometry>
        </mxCell>
        <mxCell id="NZHu4BYsuNpsSUzNb1ZC-70" value="" style="endArrow=none;dashed=1;html=1;rounded=0;entryX=0.5;entryY=1;entryDx=0;entryDy=0;" edge="1" parent="1" target="NZHu4BYsuNpsSUzNb1ZC-62">
          <mxGeometry width="50" height="50" relative="1" as="geometry">
            <mxPoint x="1170" y="500" as="sourcePoint" />
            <mxPoint x="1040" y="460" as="targetPoint" />
          </mxGeometry>
        </mxCell>
        <mxCell id="NZHu4BYsuNpsSUzNb1ZC-71" value="" style="endArrow=none;dashed=1;html=1;rounded=0;entryX=0.5;entryY=1;entryDx=0;entryDy=0;exitX=0.5;exitY=0;exitDx=0;exitDy=0;" edge="1" parent="1" source="NZHu4BYsuNpsSUzNb1ZC-62" target="NZHu4BYsuNpsSUzNb1ZC-18">
          <mxGeometry width="50" height="50" relative="1" as="geometry">
            <mxPoint x="1290" y="450" as="sourcePoint" />
            <mxPoint x="1340" y="400" as="targetPoint" />
          </mxGeometry>
        </mxCell>
        <mxCell id="NZHu4BYsuNpsSUzNb1ZC-72" value="" style="endArrow=none;html=1;rounded=0;entryX=1;entryY=0.5;entryDx=0;entryDy=0;entryPerimeter=0;exitX=0.25;exitY=1;exitDx=0;exitDy=0;" edge="1" parent="1" source="NZHu4BYsuNpsSUzNb1ZC-36" target="NZHu4BYsuNpsSUzNb1ZC-58">
          <mxGeometry width="50" height="50" relative="1" as="geometry">
            <mxPoint x="600" y="580" as="sourcePoint" />
            <mxPoint x="650" y="530" as="targetPoint" />
          </mxGeometry>
        </mxCell>
        <mxCell id="NZHu4BYsuNpsSUzNb1ZC-73" value="" style="endArrow=none;html=1;rounded=0;exitX=1;exitY=0.5;exitDx=0;exitDy=0;exitPerimeter=0;entryX=0.5;entryY=1;entryDx=0;entryDy=0;" edge="1" parent="1" source="NZHu4BYsuNpsSUzNb1ZC-59" target="NZHu4BYsuNpsSUzNb1ZC-36">
          <mxGeometry width="50" height="50" relative="1" as="geometry">
            <mxPoint x="870" y="560" as="sourcePoint" />
            <mxPoint x="920" y="510" as="targetPoint" />
          </mxGeometry>
        </mxCell>
        <mxCell id="NZHu4BYsuNpsSUzNb1ZC-74" value="Изменяет&lt;br&gt;оформление&lt;br&gt;книги" style="rounded=0;whiteSpace=wrap;html=1;" vertex="1" parent="1">
          <mxGeometry x="660" y="15" width="120" height="60" as="geometry" />
        </mxCell>
        <mxCell id="NZHu4BYsuNpsSUzNb1ZC-75" value="Выбор&lt;br&gt;щрифта&lt;br&gt;текста" style="rounded=0;whiteSpace=wrap;html=1;" vertex="1" parent="1">
          <mxGeometry x="660" y="470" width="120" height="60" as="geometry" />
        </mxCell>
        <mxCell id="NZHu4BYsuNpsSUzNb1ZC-77" value="Выбор&lt;br&gt;размера&lt;br&gt;текста" style="rounded=0;whiteSpace=wrap;html=1;" vertex="1" parent="1">
          <mxGeometry x="660" y="565" width="120" height="60" as="geometry" />
        </mxCell>
        <mxCell id="NZHu4BYsuNpsSUzNb1ZC-78" value="" style="endArrow=none;dashed=1;html=1;rounded=0;entryX=0.5;entryY=1;entryDx=0;entryDy=0;exitX=0.5;exitY=0;exitDx=0;exitDy=0;" edge="1" parent="1" source="NZHu4BYsuNpsSUzNb1ZC-75" target="NZHu4BYsuNpsSUzNb1ZC-74">
          <mxGeometry width="50" height="50" relative="1" as="geometry">
            <mxPoint x="720" y="440" as="sourcePoint" />
            <mxPoint x="750" y="110" as="targetPoint" />
          </mxGeometry>
        </mxCell>
        <mxCell id="NZHu4BYsuNpsSUzNb1ZC-79" value="" style="endArrow=none;html=1;rounded=0;exitX=1;exitY=0.5;exitDx=0;exitDy=0;entryX=0;entryY=0.5;entryDx=0;entryDy=0;entryPerimeter=0;" edge="1" parent="1" source="NZHu4BYsuNpsSUzNb1ZC-75" target="NZHu4BYsuNpsSUzNb1ZC-58">
          <mxGeometry width="50" height="50" relative="1" as="geometry">
            <mxPoint x="750" y="410" as="sourcePoint" />
            <mxPoint x="800" y="360" as="targetPoint" />
          </mxGeometry>
        </mxCell>
        <mxCell id="NZHu4BYsuNpsSUzNb1ZC-80" value="" style="endArrow=none;html=1;rounded=0;exitX=1;exitY=0.5;exitDx=0;exitDy=0;entryX=0;entryY=0.5;entryDx=0;entryDy=0;entryPerimeter=0;" edge="1" parent="1" source="NZHu4BYsuNpsSUzNb1ZC-77" target="NZHu4BYsuNpsSUzNb1ZC-59">
          <mxGeometry width="50" height="50" relative="1" as="geometry">
            <mxPoint x="760" y="390" as="sourcePoint" />
            <mxPoint x="810" y="340" as="targetPoint" />
          </mxGeometry>
        </mxCell>
        <mxCell id="NZHu4BYsuNpsSUzNb1ZC-83" value="" style="endArrow=none;dashed=1;html=1;rounded=0;exitX=0.446;exitY=0.006;exitDx=0;exitDy=0;exitPerimeter=0;" edge="1" parent="1" source="NZHu4BYsuNpsSUzNb1ZC-77">
          <mxGeometry width="50" height="50" relative="1" as="geometry">
            <mxPoint x="620" y="550" as="sourcePoint" />
            <mxPoint x="720" y="440" as="targetPoint" />
            <Array as="points">
              <mxPoint x="714" y="550" />
              <mxPoint x="620" y="550" />
              <mxPoint x="620" y="440" />
            </Array>
          </mxGeometry>
        </mxCell>
      </root>
    </mxGraphModel>
  </diagram>
</mxfile>
